<?xml version="1.0" encoding="utf-8"?>
<!-- Generator: Adobe Illustrator 15.1.0, SVG Export Plug-In . SVG Version: 6.00 Build 0)  -->
<!DOCTYPE svg PUBLIC "-//W3C//DTD SVG 1.1//EN" "http://www.w3.org/Graphics/SVG/1.1/DTD/svg11.dtd">
<svg version="1.1" id="Layer_1" xmlns="http://www.w3.org/2000/svg" xmlns:xlink="http://www.w3.org/1999/xlink" x="0px" y="0px"
	 width="180px" height="58px" viewBox="0 0 180 58" enable-background="new 0 0 180 58" xml:space="preserve">
<g>
	<g>
		<path d="M43.112,3.998c0,0.023-0.306,0.023-0.306-0.025c0-0.343-0.071-0.687-0.234-0.883c-0.258-0.246-0.61-0.443-2.023-0.443
			c-0.281,0-0.444,0.024-0.563,0.024c-0.048,0.147-0.069,0.664-0.069,1.499v3.144c0,2.408,0.117,2.705,0.281,2.778
			c0.166,0.096,0.494,0.171,1.011,0.22c0.047,0.024,0.047,0.319,0,0.319c-0.611,0-3.104,0-3.714,0c-0.046,0-0.046-0.294,0-0.319
			c0.516-0.048,0.846-0.124,1.01-0.22c0.166-0.074,0.261-0.371,0.261-2.778V4.17c0-0.835,0-1.352-0.049-1.499
			c-0.117,0-0.352-0.024-0.635-0.024c-1.34,0-1.715,0.147-2.021,0.443c-0.21,0.196-0.329,0.589-0.4,0.908
			c0,0.048-0.304,0-0.304-0.048c0.072-0.664,0.14-1.451,0.187-1.918c0-0.022,0.025-0.048,0.07-0.048
			c0.472,0.074,1.481,0.148,3.739,0.148c3.103,0,3.576-0.074,3.809-0.174c0.048,0,0.07,0.025,0.07,0.051
			C43.23,2.526,43.208,3.286,43.112,3.998z"/>
		<path d="M50.115,10.631c-0.046,0-0.046-0.294,0-0.319c0.518-0.048,0.729-0.124,0.892-0.22c0.167-0.074,0.284-0.371,0.284-2.778
			V6.53h-4.723v0.784c0,2.408,0.114,2.705,0.281,2.778c0.163,0.096,0.375,0.171,0.892,0.22c0.049,0.024,0.049,0.319,0.024,0.319
			c-0.634,0-2.916,0-3.526,0c-0.025,0-0.046-0.294,0.024-0.319c0.516-0.048,0.728-0.124,0.892-0.22
			c0.164-0.074,0.259-0.371,0.259-2.778V5.398c0-2.408-0.096-2.702-0.259-2.776c-0.164-0.096-0.376-0.17-0.892-0.245
			c-0.07,0-0.049-0.297-0.024-0.297c0.61,0,2.892,0,3.526,0c0.024,0,0.024,0.297-0.024,0.297c-0.516,0.075-0.729,0.149-0.892,0.245
			c-0.167,0.074-0.281,0.368-0.281,2.776v0.59h4.723v-0.59c0-2.408-0.118-2.702-0.284-2.776c-0.163-0.096-0.374-0.17-0.892-0.245
			c-0.046,0-0.046-0.297,0-0.297c0.611,0,2.892,0,3.503,0c0.048,0,0.048,0.297-0.023,0.297c-0.494,0.075-0.729,0.149-0.894,0.245
			c-0.143,0.074-0.259,0.368-0.259,2.776v1.916c0,2.408,0.116,2.705,0.259,2.778c0.165,0.096,0.4,0.171,0.894,0.22
			c0.071,0.024,0.071,0.319,0.023,0.319C53.006,10.631,50.726,10.631,50.115,10.631z"/>
		<path d="M60.503,10.41c-0.094,0.147-0.164,0.247-0.494,0.247c-0.796,0-1.738-0.049-2.821-0.049c-0.845,0-1.363,0-2.279,0.023
			c-0.047,0-0.047-0.294,0-0.319c0.516-0.048,0.752-0.124,0.895-0.22c0.163-0.074,0.281-0.371,0.281-2.778V5.398
			c0-2.408-0.118-2.702-0.281-2.776c-0.142-0.096-0.378-0.17-0.895-0.245c-0.047,0-0.047-0.297,0-0.297
			c1.011,0.027,2.609,0.027,3.456,0.027c1.081,0,1.693-0.027,2.069-0.049c0.069-0.026,0.094,0.022,0.094,0.049
			c-0.048,0.441-0.072,1.079-0.14,1.77c-0.024,0.074-0.33,0.048-0.33-0.025c0-0.344-0.071-0.666-0.259-0.885
			c-0.212-0.221-0.585-0.344-1.505-0.344c-0.515,0-0.868,0.025-1.01,0.025c-0.048,0.147-0.048,0.588-0.048,1.425v1.842h0.965
			c1.245,0,1.41-0.294,1.48-0.761c0.022-0.049,0.328-0.049,0.328,0c-0.022,0.367-0.069,1.941-0.069,2.284c0,0.049-0.33,0.049-0.33,0
			c0-0.248-0.048-0.589-0.188-0.712c-0.118-0.099-0.305-0.247-1.246-0.247h-0.941v0.836c0,1.598,0.12,2.334,0.283,2.53
			c0.164,0.147,0.33,0.248,1.105,0.248c0.799,0,1.244-0.197,1.481-0.468c0.188-0.196,0.329-0.467,0.423-0.91
			c0.024-0.073,0.258,0,0.234,0.049C60.716,9.452,60.598,10.214,60.503,10.41z"/>
		<path d="M73.711,10.14c-0.165,0.246-1.038,0.614-2.585,0.614c-2.681,0-4.656-1.915-4.656-4.299c0-2.259,1.739-4.497,4.631-4.497
			c1.481,0,2.232,0.494,2.702,0.394c0.047-0.023,0.072,0.025,0.072,0.049c0.024,0.467,0.046,1.178,0.046,1.891
			c0,0.074-0.328,0.051-0.328-0.021c-0.024-0.346-0.237-0.788-0.493-1.058c-0.472-0.467-1.247-0.761-2.142-0.761
			c-2.349,0-3.195,1.744-3.195,3.635c0,2.135,1.317,4.127,3.384,4.127c0.965,0,1.598-0.174,2.045-0.713
			c0.259-0.343,0.423-0.762,0.541-1.153c0.024-0.073,0.309,0,0.309,0.049C73.992,9.083,73.828,9.967,73.711,10.14z"/>
		<path d="M81.584,10.631c-0.047,0-0.047-0.294,0-0.319c0.516-0.048,0.729-0.124,0.891-0.22c0.167-0.074,0.283-0.371,0.283-2.778
			V6.53h-4.726v0.784c0,2.408,0.118,2.705,0.284,2.778c0.164,0.096,0.375,0.171,0.892,0.22c0.046,0.024,0.046,0.319,0.024,0.319
			c-0.635,0-2.916,0-3.526,0c-0.024,0-0.046-0.294,0.021-0.319c0.519-0.048,0.732-0.124,0.896-0.22
			c0.162-0.074,0.258-0.371,0.258-2.778V5.398c0-2.408-0.096-2.702-0.258-2.776c-0.164-0.096-0.377-0.17-0.896-0.245
			c-0.067,0-0.045-0.297-0.021-0.297c0.61,0,2.891,0,3.526,0c0.021,0,0.021,0.297-0.024,0.297c-0.516,0.075-0.728,0.149-0.892,0.245
			c-0.167,0.074-0.284,0.368-0.284,2.776v0.59h4.726v-0.59c0-2.408-0.116-2.702-0.283-2.776c-0.162-0.096-0.375-0.17-0.891-0.245
			c-0.047,0-0.047-0.297,0-0.297c0.609,0,2.89,0,3.5,0c0.046,0,0.046,0.297-0.022,0.297c-0.493,0.075-0.729,0.149-0.893,0.245
			c-0.142,0.074-0.26,0.368-0.26,2.776v1.916c0,2.408,0.118,2.705,0.26,2.778c0.164,0.096,0.4,0.171,0.893,0.22
			c0.069,0.024,0.069,0.319,0.022,0.319C84.475,10.631,82.194,10.631,81.584,10.631z"/>
		<path d="M94.299,2.647c-0.117,0.098-0.234,0.343-0.234,2.751v2.211c0,1.574-1.271,3.145-3.314,3.145
			c-2.021,0-3.433-1.4-3.433-3.121V5.398c0-2.408-0.115-2.702-0.281-2.776c-0.164-0.096-0.377-0.17-0.893-0.245
			c-0.049,0-0.049-0.297,0-0.297c0.61,0,2.961,0,3.573,0c0.021,0,0.046,0.297-0.024,0.297c-0.493,0.075-0.775,0.149-0.941,0.245
			c-0.164,0.074-0.279,0.368-0.279,2.776V7.29c0,1.645,0.961,2.702,2.584,2.702c1.599,0,2.351-1.079,2.351-2.554v-2.04
			c0-2.408-0.116-2.653-0.235-2.751c-0.141-0.121-0.445-0.195-0.961-0.271c-0.049,0-0.025-0.297,0-0.297c0.632,0,2.371,0,2.983,0
			c0.05,0,0.069,0.297,0,0.297C94.678,2.452,94.44,2.526,94.299,2.647z"/>
		<path d="M104.264,10.607c-0.797,0-1.455-0.1-1.949-0.468c-0.68-0.441-1.388-1.301-2.423-3.096c-0.633,0.025-0.846,0-1.34-0.025
			v0.295c0,2.408,0.122,2.705,0.284,2.778c0.163,0.096,0.564,0.171,1.129,0.22c0.049,0.024,0.049,0.319,0.021,0.319
			c-0.61,0-3.149,0-3.76,0c-0.046,0-0.046-0.294,0.023-0.319c0.495-0.048,0.729-0.124,0.894-0.22
			c0.142-0.074,0.259-0.371,0.259-2.778V5.398c0-2.408-0.117-2.702-0.259-2.776c-0.164-0.096-0.398-0.17-0.894-0.245
			c-0.069,0-0.069-0.297-0.023-0.297c0.588,0,1.271,0.027,1.762,0.027c0.473,0,0.989-0.027,1.576-0.027
			c1.951,0,3.057,1.084,3.057,2.163c0,1.057-0.754,1.917-1.668,2.482c1.742,2.628,2.677,3.513,3.688,3.513c0.117,0,0.282,0,0.378,0
			c0.045-0.024,0.091,0.296,0.069,0.296C104.804,10.583,104.57,10.607,104.264,10.607z M99.539,2.574
			c-0.443,0-0.729,0.073-0.776,0.171c-0.089,0.099-0.211,0.909-0.211,2.653c0,0.787,0.052,0.886,0.122,0.958
			c0.137,0.123,0.396,0.223,1.007,0.223c0.967,0,1.623-0.886,1.623-1.894C101.304,3.507,100.786,2.574,99.539,2.574z"/>
		<path d="M112.021,10.14c-0.165,0.246-1.034,0.614-2.587,0.614c-2.681,0-4.654-1.915-4.654-4.299c0-2.259,1.74-4.497,4.631-4.497
			c1.481,0,2.231,0.494,2.702,0.394c0.049-0.023,0.071,0.025,0.071,0.049c0.022,0.467,0.045,1.178,0.045,1.891
			c0,0.074-0.327,0.051-0.327-0.021c-0.023-0.346-0.234-0.788-0.493-1.058c-0.471-0.467-1.246-0.761-2.14-0.761
			c-2.352,0-3.198,1.744-3.198,3.635c0,2.135,1.317,4.127,3.387,4.127c0.964,0,1.598-0.174,2.045-0.713
			c0.26-0.343,0.422-0.762,0.539-1.153c0.025-0.073,0.306,0,0.306,0.049C112.302,9.083,112.139,9.967,112.021,10.14z"/>
		<path d="M119.798,10.631c-0.047,0-0.047-0.294,0-0.319c0.518-0.048,0.731-0.124,0.896-0.22c0.162-0.074,0.282-0.371,0.282-2.778
			V6.53h-4.727v0.784c0,2.408,0.118,2.705,0.281,2.778c0.167,0.096,0.376,0.171,0.894,0.22c0.047,0.024,0.047,0.319,0.021,0.319
			c-0.632,0-2.909,0-3.524,0c-0.023,0-0.047-0.294,0.025-0.319c0.517-0.048,0.726-0.124,0.895-0.22
			c0.162-0.074,0.257-0.371,0.257-2.778V5.398c0-2.408-0.095-2.702-0.257-2.776c-0.169-0.096-0.378-0.17-0.895-0.245
			c-0.072,0-0.049-0.297-0.025-0.297c0.615,0,2.893,0,3.524,0c0.025,0,0.025,0.297-0.021,0.297
			c-0.518,0.075-0.727,0.149-0.894,0.245c-0.163,0.074-0.281,0.368-0.281,2.776v0.59h4.727v-0.59c0-2.408-0.12-2.702-0.282-2.776
			c-0.165-0.096-0.379-0.17-0.896-0.245c-0.047,0-0.047-0.297,0-0.297c0.61,0,2.895,0,3.505,0c0.046,0,0.046,0.297-0.025,0.297
			c-0.493,0.075-0.727,0.149-0.891,0.245c-0.142,0.074-0.26,0.368-0.26,2.776v1.916c0,2.408,0.118,2.705,0.26,2.778
			c0.164,0.096,0.397,0.171,0.891,0.22c0.071,0.024,0.071,0.319,0.025,0.319C122.692,10.631,120.408,10.631,119.798,10.631z"/>
		<path d="M132.63,10.753c-2.491,0-4.35-1.915-4.35-4.299c0-2.259,1.858-4.497,4.514-4.497c2.49,0,4.349,1.918,4.349,4.3
			C137.143,8.52,135.284,10.753,132.63,10.753z M132.533,2.499c-2.304,0-2.96,1.966-2.96,3.588c0,2.135,1.222,4.127,3.312,4.127
			c2.307,0,2.963-1.966,2.963-3.587C135.848,4.489,134.626,2.499,132.533,2.499z"/>
		<path d="M144.121,3.851c0,0.048-0.329,0.048-0.329-0.049c0-0.319-0.068-0.616-0.261-0.812c-0.208-0.245-0.679-0.442-1.596-0.442
			c-0.517,0-0.989,0.027-1.129,0.049c-0.023,0.125-0.047,0.639-0.047,1.476v1.939h0.92c1.241,0,1.408-0.146,1.479-0.613
			c0.021-0.048,0.328-0.024,0.328,0c-0.023,0.368-0.072,1.697-0.072,2.064c0,0.025-0.327,0.025-0.327-0.024
			c0-0.248-0.047-0.517-0.188-0.641c-0.116-0.124-0.305-0.195-1.245-0.195h-0.895v0.712c0,2.408,0.119,2.705,0.283,2.778
			c0.164,0.096,0.563,0.171,1.129,0.22c0.046,0.024,0.046,0.319,0.022,0.319c-0.637,0-3.15,0-3.762,0
			c-0.047,0-0.047-0.294,0.026-0.319c0.492-0.048,0.727-0.124,0.891-0.22c0.142-0.074,0.259-0.371,0.259-2.778V5.398
			c0-2.408-0.117-2.776-0.259-2.851c-0.164-0.096-0.398-0.171-0.891-0.219c-0.073-0.026-0.073-0.249-0.026-0.249
			c1.012,0.027,2.682,0.027,3.503,0.027c1.105,0,1.856-0.027,2.258-0.049c0.046-0.026,0.071,0.022,0.071,0.049
			C144.239,2.547,144.193,3.137,144.121,3.851z"/>
		<path d="M13.775,20.358c-0.974,0.104-1.597,0.181-1.897,0.365c-0.322,0.181-0.599,0.886-0.522,5.633l0.075,7.062
			c0.049,4.56-0.975,6.568-5.314,8.681c-0.074,0.052-0.298-0.286-0.197-0.363c2.194-1.67,3.343-2.793,3.343-8.317v-7.062
			c0-4.747-0.225-5.452-0.526-5.633c-0.298-0.184-0.948-0.26-1.921-0.365c-0.098-0.025-0.098-0.548-0.024-0.548
			c1.172,0,5.837,0,7.011,0C13.875,19.811,13.899,20.333,13.775,20.358z"/>
		<path d="M27.266,36.417c-0.124,0.155-0.873,0.313-1.919,0.313c-1.499,0-2.271-0.081-4.341-0.081c-1.622,0-2.819,0.028-4.588,0.052
			c-0.075,0-0.075-0.521,0.024-0.546c0.973-0.104,1.544-0.184,1.845-0.363c0.3-0.185,0.525-0.887,0.525-5.63v-3.806
			c0-4.747-0.226-5.452-0.525-5.633c-0.301-0.184-0.873-0.26-1.845-0.365c-0.099-0.025-0.099-0.548-0.024-0.548
			c1.944,0.026,5.211,0.051,6.832,0.051c2.098,0,2.92-0.025,3.668-0.13c0.125,0,0.149,0.052,0.149,0.105
			c-0.051,0.912-0.125,2.217-0.274,3.625c-0.026,0.104-0.546,0.075-0.546-0.081c0-0.625-0.201-1.328-0.575-1.771
			c-0.525-0.547-1.124-0.782-2.546-0.782c-0.972,0-1.896,0-2.119,0.051c-0.075,0.261-0.1,1.227-0.1,2.869v3.699h2.045
			c2.368,0,2.42-0.701,2.568-1.642c0.024-0.104,0.55-0.076,0.55,0c-0.024,0.708-0.1,3.964-0.125,4.695
			c0,0.079-0.549,0.079-0.549-0.027c0-0.466-0.125-1.354-0.351-1.616c-0.224-0.233-0.35-0.389-2.121-0.389h-2.018v1.745
			c0,3.364,0.148,4.901,0.374,5.136c0.226,0.235,0.998,0.339,2.467,0.339c1.551,0,2.122-0.391,2.572-0.886
			c0.3-0.34,0.599-1.095,0.824-2.086c0.024-0.13,0.546-0.026,0.546,0.104C27.563,34.46,27.29,36.364,27.266,36.417z"/>
		<path d="M35.446,37.043c-2.069,0-3.764-0.967-3.99-1.307c-0.024-0.051-0.276-2.763-0.148-4.09c0-0.131,0.546-0.157,0.574,0
			c0.048,0.989,0.522,2.319,0.869,2.866c0.626,0.99,1.699,1.643,3.219,1.643c1.723,0,2.671-1.201,2.671-3.076
			c0-4.119-6.562-4.328-6.562-9.071c0-2.478,1.92-4.615,4.54-4.615c1.895,0,2.17,0.625,3.243,0.495
			c0.099-0.025,0.149,0.027,0.149,0.08c0,0.911,0.048,2.449,0,3.857c-0.026,0.08-0.55,0.08-0.571-0.052
			c-0.076-1.042-0.301-1.954-0.775-2.528c-0.55-0.626-1.249-1.016-2.32-1.016c-1.348,0-2.37,1.224-2.37,2.839
			c0,3.522,6.659,4.379,6.659,8.891C40.634,35.217,37.966,37.043,35.446,37.043z"/>
		<path d="M58.794,20.801c-0.2,0.182-0.424,0.808-0.424,5.555v4.377c0,3.129-2.293,6.126-6.559,6.126
			c-3.891,0-6.261-2.687-6.261-6.074v-4.429c0-4.747-0.225-5.452-0.525-5.633c-0.323-0.184-0.748-0.26-1.719-0.365
			c-0.101-0.025-0.101-0.548-0.024-0.548c1.172,0,5.56,0,6.733,0c0.076,0,0.076,0.523-0.027,0.548
			c-0.971,0.104-1.496,0.181-1.82,0.365c-0.298,0.181-0.521,0.886-0.521,5.633v3.959c0,2.867,1.721,5.24,5.012,5.24
			c3.068,0,4.588-2.424,4.588-4.951v-4.249c0-4.747-0.25-5.373-0.449-5.555c-0.273-0.262-0.845-0.338-1.845-0.443
			c-0.1-0.025-0.076-0.548,0-0.548c1.171,0,4.415,0,5.585,0c0.076,0,0.127,0.523,0,0.548C59.57,20.463,59.069,20.539,58.794,20.801z
			"/>
		<path d="M67.127,37.043c-2.07,0-3.766-0.967-3.99-1.307c-0.024-0.051-0.276-2.763-0.151-4.09c0-0.131,0.549-0.157,0.577,0
			c0.048,0.989,0.52,2.319,0.869,2.866c0.625,0.99,1.699,1.643,3.219,1.643c1.72,0,2.668-1.201,2.668-3.076
			c0-4.119-6.559-4.328-6.559-9.071c0-2.478,1.92-4.615,4.54-4.615c1.895,0,2.17,0.625,3.243,0.495
			c0.098-0.025,0.149,0.027,0.149,0.08c0,0.911,0.049,2.449,0,3.857c-0.025,0.08-0.55,0.08-0.574-0.052
			c-0.075-1.042-0.298-1.954-0.772-2.528c-0.55-0.626-1.248-1.016-2.322-1.016c-1.345,0-2.368,1.224-2.368,2.839
			c0,3.522,6.658,4.379,6.658,8.891C72.314,35.217,69.646,37.043,67.127,37.043z"/>
		<path d="M96.755,35.84c-0.073,0.132-1.743,1.228-4.962,1.228c-5.312,0-8.683-3.885-8.683-8.601c0-4.458,3.069-9.02,8.631-9.02
			c2.819,0,4.216,0.989,5.114,0.782c0.101-0.026,0.148,0.052,0.148,0.105c0.028,0.911,0.1,2.788,0.076,4.195
			c-0.024,0.104-0.55,0.104-0.576-0.051c-0.099-1.072-0.421-1.957-1.021-2.633c-0.748-0.81-2.319-1.486-3.989-1.486
			c-4.341,0-6.037,3.649-6.037,7.352c0,4.248,2.568,8.341,6.386,8.341c1.847,0,3.043-0.549,3.892-1.642
			c0.524-0.679,0.82-1.462,1.047-2.243c0.023-0.156,0.549-0.023,0.549,0.079C97.256,33.34,96.804,35.765,96.755,35.84z"/>
		<path d="M112.096,36.701c-0.074,0-0.074-0.546,0.026-0.546c0.972-0.104,1.396-0.208,1.722-0.363
			c0.298-0.185,0.521-0.887,0.521-5.658v-1.59h-9.177v1.59c0,4.771,0.223,5.474,0.548,5.658c0.299,0.155,0.723,0.26,1.694,0.363
			c0.102,0,0.102,0.546,0.026,0.546c-1.172,0-5.438,0-6.61,0c-0.073,0-0.073-0.546,0.026-0.546c0.975-0.104,1.42-0.208,1.722-0.363
			c0.296-0.185,0.524-0.887,0.524-5.658v-3.778c0-4.772-0.229-5.452-0.524-5.633c-0.302-0.184-0.747-0.26-1.722-0.365
			c-0.1-0.025-0.1-0.548-0.026-0.548c1.172,0,5.438,0,6.61,0c0.075,0,0.075,0.523-0.026,0.548c-0.972,0.104-1.396,0.181-1.694,0.365
			c-0.325,0.181-0.548,0.861-0.548,5.633v1.223h9.177v-1.223c0-4.772-0.224-5.452-0.521-5.633c-0.325-0.184-0.75-0.26-1.722-0.365
			c-0.101-0.025-0.101-0.548-0.026-0.548c1.175,0,5.437,0,6.611,0c0.074,0,0.074,0.523-0.025,0.548
			c-0.973,0.104-1.397,0.181-1.723,0.365c-0.299,0.181-0.521,0.861-0.521,5.633v3.778c0,4.771,0.223,5.474,0.521,5.658
			c0.325,0.155,0.75,0.26,1.723,0.363c0.1,0,0.1,0.546,0.025,0.546C117.532,36.701,113.271,36.701,112.096,36.701z"/>
		<path d="M137.562,36.701c-2.171,0-3.344-0.26-4.315-0.937c-1.272-0.913-2.62-2.686-4.64-6.257
			c-1.222,0.026-1.721,0.026-2.669-0.026v0.681c0,4.743,0.224,5.445,0.523,5.63c0.324,0.18,1.072,0.231,2.169,0.363
			c0.101,0.025,0.101,0.546,0.025,0.546c-1.171,0-5.887,0-7.059,0c-0.073,0-0.099-0.521,0.025-0.546
			c0.973-0.104,1.398-0.184,1.697-0.363c0.324-0.185,0.521-0.887,0.521-5.63v-3.806c0-4.747-0.197-5.452-0.521-5.633
			c-0.299-0.184-0.725-0.26-1.697-0.365c-0.124-0.025-0.099-0.548-0.025-0.548c1.1,0,2.37,0.051,3.294,0.051
			c0.923,0,1.92-0.051,3.041-0.051c3.717,0,5.591,2.164,5.591,4.146c0,2.085-1.252,3.754-2.995,4.875
			c3.539,5.524,5.536,7.299,7.209,7.299c0.971,0,1.57-0.158,1.871-0.338c0.298-0.185,0.523-0.887,0.523-5.63v-3.806
			c0-4.747-0.226-5.452-0.523-5.633c-0.301-0.184-0.948-0.26-1.924-0.365c-0.097-0.025-0.097-0.548-0.025-0.548
			c1.175,0,5.84,0,7.013,0c0.098,0,0.098,0.523-0.028,0.548c-0.972,0.104-1.596,0.181-1.894,0.365
			c-0.324,0.181-0.526,0.886-0.526,5.633v3.806c0,4.743,0.202,5.445,0.526,5.63c0.298,0.18,0.922,0.26,1.894,0.363
			c0.126,0.025,0.126,0.546,0.028,0.546C143.499,36.701,138.76,36.701,137.562,36.701z M127.885,20.697
			c-0.85,0-1.595,0.13-1.673,0.235c-0.124,0.156-0.273,1.642-0.273,5.424c0,1.561,0.049,1.847,0.149,1.953
			c0.177,0.184,0.873,0.288,2.07,0.288c2.045,0,2.993-1.616,2.993-3.649C131.151,22.445,130.278,20.697,127.885,20.697z"/>
		<path d="M151.751,37.043c-2.069,0-3.767-0.967-3.991-1.307c-0.023-0.051-0.272-2.763-0.149-4.09c0-0.131,0.551-0.157,0.575,0
			c0.048,0.989,0.523,2.319,0.871,2.866c0.625,0.99,1.697,1.643,3.22,1.643c1.721,0,2.667-1.201,2.667-3.076
			c0-4.119-6.558-4.328-6.558-9.071c0-2.478,1.92-4.615,4.537-4.615c1.896,0,2.17,0.625,3.244,0.495
			c0.1-0.025,0.148,0.027,0.148,0.08c0,0.911,0.051,2.449,0,3.857c-0.025,0.08-0.548,0.08-0.571-0.052
			c-0.077-1.042-0.302-1.954-0.775-2.528c-0.548-0.626-1.248-1.016-2.319-1.016c-1.347,0-2.371,1.224-2.371,2.839
			c0,3.522,6.661,4.379,6.661,8.891C156.939,35.217,154.269,37.043,151.751,37.043z"/>
		<path d="M173.502,24.008c-0.025,0.129-0.546,0.129-0.546-0.052c0-0.654-0.075-1.903-0.502-2.372
			c-0.498-0.549-1.52-0.992-3.715-0.992c-0.572,0-0.873,0-1.123,0.052c-0.071,0.26-0.1,1.513-0.1,3.155v6.363
			c0,4.743,0.225,5.445,0.523,5.63c0.3,0.18,0.925,0.26,1.923,0.363c0.099,0.025,0.099,0.546,0.023,0.546c-1.195,0-5.837,0-7.034,0
			c-0.073,0-0.073-0.521,0.052-0.546c0.971-0.104,1.594-0.184,1.895-0.363c0.324-0.185,0.523-0.887,0.523-5.63v-6.363
			c0-1.643-0.023-2.895-0.101-3.155c-0.249-0.052-0.673-0.052-1.246-0.052c-2.346,0-3.141,0.261-3.716,0.992
			c-0.401,0.495-0.652,1.407-0.822,2.424c-0.025,0.183-0.552,0.104-0.552-0.052c0.152-1.356,0.301-3.338,0.376-4.225
			c0-0.079,0.127-0.128,0.298-0.103c0.872,0.155,2.472,0.286,6.811,0.286c5.961,0,6.512-0.183,6.959-0.338
			c0.15-0.052,0.274,0.027,0.274,0.104C173.703,20.671,173.653,22.625,173.502,24.008z"/>
		<path d="M20.411,54.504c-2.492,0-4.349-1.913-4.349-4.298c0-2.259,1.857-4.497,4.514-4.497c2.489,0,4.349,1.918,4.349,4.302
			C24.925,52.271,23.065,54.504,20.411,54.504z M20.316,46.25c-2.305,0-2.961,1.966-2.961,3.589c0,2.138,1.221,4.126,3.314,4.126
			c2.303,0,2.962-1.965,2.962-3.586C23.632,48.238,22.408,46.25,20.316,46.25z"/>
		<path d="M31.975,47.601c0,0.053-0.33,0.053-0.33-0.047c0-0.321-0.071-0.613-0.256-0.812c-0.212-0.248-0.684-0.442-1.601-0.442
			c-0.516,0-0.988,0.024-1.129,0.053c-0.022,0.12-0.046,0.636-0.046,1.471v1.942h0.917c1.246,0,1.413-0.149,1.481-0.616
			c0.024-0.049,0.33-0.022,0.33,0c-0.025,0.369-0.071,1.695-0.071,2.062c0,0.025-0.327,0.025-0.327-0.022
			c0-0.244-0.047-0.517-0.188-0.639c-0.117-0.122-0.305-0.196-1.247-0.196h-0.895v0.713c0,2.408,0.118,2.701,0.284,2.776
			c0.164,0.096,0.562,0.17,1.126,0.219c0.048,0.023,0.048,0.319,0.024,0.319c-0.633,0-3.15,0-3.761,0
			c-0.046,0-0.046-0.296,0.025-0.319c0.493-0.049,0.725-0.123,0.892-0.219c0.142-0.075,0.259-0.368,0.259-2.776v-1.918
			c0-2.407-0.117-2.777-0.259-2.85c-0.167-0.098-0.399-0.173-0.892-0.222c-0.071-0.024-0.071-0.242-0.025-0.242
			c1.012,0.021,2.679,0.021,3.501,0.021c1.107,0,1.857-0.021,2.258-0.049c0.047-0.025,0.071,0.027,0.071,0.049
			C32.092,46.3,32.045,46.889,31.975,47.601z"/>
		<path d="M43.063,54.162c-0.096,0.149-0.234,0.245-0.564,0.245c-0.799,0-1.74-0.047-2.822-0.047c-0.846,0-1.457,0-2.398,0.021
			c-0.024,0-0.024-0.296,0.023-0.319c0.518-0.049,0.73-0.123,0.894-0.219c0.164-0.075,0.26-0.368,0.26-2.776v-1.918
			c0-2.407-0.096-2.703-0.26-2.777c-0.164-0.093-0.376-0.17-0.894-0.245c-0.047,0-0.047-0.291-0.023-0.291c0.611,0,2.915,0,3.526,0
			c0.022,0,0.022,0.291-0.021,0.291c-0.518,0.075-0.73,0.152-0.895,0.245c-0.164,0.074-0.259,0.37-0.259,2.777v1.918
			c0,1.598,0.117,2.331,0.28,2.53c0.143,0.147,0.331,0.246,1.083,0.246c0.728,0,1.222-0.198,1.526-0.566
			c0.284-0.344,0.494-0.911,0.589-1.327c0.024-0.075,0.327-0.024,0.327,0.05C43.366,52.688,43.179,53.965,43.063,54.162z"/>
		<path d="M49.268,54.382c-0.025,0-0.047-0.296,0-0.319c0.399-0.022,0.66-0.123,0.66-0.317c0-0.223-0.167-0.665-0.919-2.533
			c0.024,0-2.563,0-2.585,0c-0.611,1.673-0.752,2.164-0.752,2.458c0,0.222,0.188,0.344,0.728,0.393c0.071,0.023,0.047,0.319,0,0.319
			c-0.373,0-2.115,0-2.726,0c-0.045,0-0.045-0.296,0-0.319c0.4-0.022,0.636-0.098,0.823-0.245c0.259-0.196,0.565-0.687,1.292-2.75
			l0.708-1.918c0.399-1.104,0.822-2.261,1.152-3.292c0.023-0.095,0.538-0.095,0.587,0c0.374,1.154,0.728,2.09,1.172,3.292
			l0.732,1.918c0.987,2.481,1.129,2.628,1.362,2.776c0.236,0.145,0.423,0.196,0.8,0.219c0.046,0.023,0.024,0.319,0,0.319
			C51.688,54.382,49.879,54.382,49.268,54.382z M47.716,47.601l-1.06,2.998h2.142L47.716,47.601z"/>
		<path d="M59.421,47.749c0,0.025-0.306,0.025-0.306-0.025c0-0.34-0.071-0.686-0.234-0.882c-0.259-0.247-0.614-0.441-2.024-0.441
			c-0.281,0-0.445,0.021-0.564,0.021c-0.046,0.147-0.071,0.664-0.071,1.501v3.145c0,2.408,0.12,2.701,0.283,2.776
			c0.164,0.096,0.493,0.17,1.012,0.219c0.046,0.023,0.046,0.319,0,0.319c-0.611,0-3.104,0-3.714,0c-0.048,0-0.048-0.296,0-0.319
			c0.516-0.049,0.845-0.123,1.009-0.219c0.164-0.075,0.26-0.368,0.26-2.776v-3.145c0-0.837,0-1.354-0.047-1.501
			c-0.117,0-0.352-0.021-0.634-0.021c-1.339,0-1.716,0.146-2.021,0.441c-0.213,0.196-0.33,0.588-0.401,0.907
			c0,0.05-0.303,0-0.303-0.049c0.068-0.662,0.14-1.45,0.186-1.917c0-0.021,0.024-0.049,0.071-0.049
			c0.47,0.074,1.481,0.149,3.736,0.149c3.104,0,3.575-0.075,3.81-0.175c0.048,0,0.071,0.025,0.071,0.054
			C59.538,46.279,59.515,47.038,59.421,47.749z"/>
		<path d="M68.14,47.749c0,0.025-0.305,0.025-0.305-0.025c0-0.34-0.071-0.686-0.235-0.882c-0.259-0.247-0.613-0.441-2.023-0.441
			c-0.281,0-0.448,0.021-0.564,0.021c-0.047,0.147-0.071,0.664-0.071,1.501v3.145c0,2.408,0.12,2.701,0.284,2.776
			c0.162,0.096,0.493,0.17,1.01,0.219c0.047,0.023,0.047,0.319,0,0.319c-0.612,0-3.103,0-3.713,0c-0.046,0-0.046-0.296,0-0.319
			c0.518-0.049,0.846-0.123,1.012-0.219c0.164-0.075,0.256-0.368,0.256-2.776v-3.145c0-0.837,0-1.354-0.047-1.501
			c-0.116,0-0.351-0.021-0.635-0.021c-1.339,0-1.715,0.146-2.021,0.441c-0.212,0.196-0.331,0.588-0.398,0.907
			c0,0.05-0.308,0-0.308-0.049c0.073-0.662,0.142-1.45,0.188-1.917c0-0.021,0.024-0.049,0.07-0.049
			c0.472,0.074,1.482,0.149,3.739,0.149c3.104,0,3.573-0.075,3.806-0.175c0.048,0,0.072,0.025,0.072,0.054
			C68.256,46.279,68.232,47.038,68.14,47.749z"/>
		<path d="M75.047,54.162c-0.094,0.149-0.164,0.245-0.493,0.245c-0.8,0-1.741-0.047-2.82-0.047c-0.849,0-1.364,0-2.28,0.021
			c-0.048,0-0.048-0.296,0-0.319c0.516-0.049,0.75-0.123,0.892-0.219c0.164-0.075,0.283-0.368,0.283-2.776v-1.918
			c0-2.407-0.119-2.703-0.283-2.777c-0.142-0.093-0.376-0.17-0.892-0.245c-0.048,0-0.048-0.291,0-0.291
			c1.009,0.021,2.607,0.021,3.456,0.021c1.079,0,1.69-0.021,2.067-0.049c0.071-0.025,0.096,0.027,0.096,0.049
			C75.023,46.3,75,46.94,74.929,47.627c-0.024,0.073-0.33,0.049-0.33-0.026c0-0.344-0.07-0.66-0.257-0.884
			c-0.211-0.223-0.588-0.345-1.504-0.345c-0.519,0-0.87,0.028-1.012,0.028c-0.046,0.146-0.046,0.588-0.046,1.423v1.842h0.962
			c1.246,0,1.41-0.294,1.482-0.762c0.024-0.048,0.33-0.048,0.33,0c-0.024,0.371-0.072,1.941-0.072,2.286c0,0.048-0.33,0.048-0.33,0
			c0-0.244-0.046-0.591-0.185-0.713c-0.118-0.098-0.309-0.244-1.247-0.244h-0.94v0.835c0,1.598,0.117,2.331,0.281,2.53
			c0.167,0.147,0.33,0.246,1.107,0.246c0.8,0,1.244-0.198,1.48-0.468c0.188-0.194,0.328-0.468,0.423-0.91
			c0.021-0.073,0.256,0,0.234,0.051C75.259,53.205,75.142,53.965,75.047,54.162z"/>
		<path d="M85.131,54.36c-0.798,0-1.457-0.1-1.949-0.469c-0.682-0.442-1.388-1.301-2.422-3.095c-0.635,0.024-0.849,0-1.342-0.025
			v0.296c0,2.408,0.121,2.701,0.284,2.776c0.163,0.096,0.565,0.17,1.128,0.219c0.047,0.023,0.047,0.319,0.022,0.319
			c-0.61,0-3.15,0-3.76,0c-0.045,0-0.045-0.296,0.024-0.319c0.495-0.049,0.729-0.123,0.892-0.219
			c0.142-0.075,0.259-0.368,0.259-2.776v-1.918c0-2.407-0.117-2.703-0.259-2.777c-0.163-0.093-0.397-0.17-0.892-0.245
			c-0.069,0-0.069-0.291-0.024-0.291c0.585,0,1.271,0.021,1.764,0.021c0.47,0,0.985-0.021,1.575-0.021
			c1.951,0,3.056,1.08,3.056,2.16c0,1.056-0.753,1.914-1.669,2.48c1.739,2.627,2.676,3.512,3.689,3.512c0.116,0,0.28,0,0.377,0
			c0.046-0.023,0.092,0.299,0.072,0.299C85.672,54.333,85.437,54.36,85.131,54.36z M80.407,46.324c-0.447,0-0.729,0.076-0.776,0.17
			c-0.092,0.101-0.212,0.911-0.212,2.655c0,0.788,0.048,0.886,0.121,0.959c0.139,0.124,0.396,0.221,1.009,0.221
			c0.965,0,1.622-0.885,1.622-1.893C82.17,47.257,81.652,46.324,80.407,46.324z"/>
		<path d="M89.856,50.306c-0.051,0.073-0.143,0.098-0.307,0.098l-1.577,0.025c-1.504,0-1.811,0.219-1.951,0.564
			c-0.023,0.049-0.305-0.023-0.305-0.074c0.023-0.296,0.068-0.908,0.117-1.179l1.93-0.024c1.501,0,1.738-0.249,1.924-0.566
			c0.025-0.049,0.284,0.026,0.284,0.05C89.948,49.494,89.901,50.232,89.856,50.306z"/>
		<path d="M98.786,53.08c-0.896,0.908-1.881,1.302-3.527,1.302c-0.587,0-1.503-0.021-1.997-0.021c-0.47,0-1.175,0.021-1.74,0.021
			c-0.047,0-0.047-0.296,0-0.319c0.517-0.049,0.729-0.123,0.896-0.219c0.163-0.075,0.28-0.368,0.28-2.776v-1.918
			c0-2.407-0.117-2.703-0.28-2.777c-0.167-0.093-0.379-0.17-0.896-0.245c-0.047,0-0.047-0.291,0-0.291
			c0.565,0,1.271,0.021,1.74,0.021c0.494,0,1.691-0.021,2.257-0.021c2.632,0,4.606,1.791,4.606,4.175
			C100.125,51.142,99.583,52.271,98.786,53.08z M95.143,46.324c-0.799,0-1.012,0.122-1.104,0.245c-0.07,0.1-0.19,0.713-0.19,2.531
			v1.967c0,1.598,0.12,2.283,0.283,2.481c0.236,0.245,0.423,0.317,1.104,0.317c2.539,0,3.621-1.154,3.621-3.634
			C98.856,48.216,97.611,46.324,95.143,46.324z"/>
		<path d="M105.909,54.382c-0.022,0-0.045-0.296,0-0.319c0.399-0.022,0.659-0.123,0.659-0.317c0-0.223-0.166-0.665-0.918-2.533
			c0.023,0-2.56,0-2.585,0c-0.61,1.673-0.752,2.164-0.752,2.458c0,0.222,0.188,0.344,0.73,0.393c0.068,0.023,0.047,0.319,0,0.319
			c-0.378,0-2.117,0-2.728,0c-0.049,0-0.049-0.296,0-0.319c0.396-0.022,0.633-0.098,0.82-0.245c0.26-0.196,0.564-0.687,1.295-2.75
			l0.705-1.918c0.398-1.104,0.822-2.261,1.15-3.292c0.023-0.095,0.542-0.095,0.588,0c0.376,1.154,0.729,2.09,1.175,3.292
			l0.729,1.918c0.987,2.481,1.13,2.628,1.363,2.776c0.236,0.145,0.422,0.196,0.801,0.219c0.046,0.023,0.022,0.319,0,0.319
			C108.33,54.382,106.521,54.382,105.909,54.382z M104.357,47.601l-1.058,2.998h2.14L104.357,47.601z"/>
		<path d="M115.497,46.279c-0.33,0.167-0.585,0.537-1.245,1.644l-0.705,1.178c-0.305,0.49-0.61,1.031-0.894,1.522v0.444
			c0,2.408,0.116,2.701,0.258,2.776c0.164,0.096,0.496,0.17,1.014,0.219c0.047,0.023,0.047,0.319,0,0.319c-0.611,0-3.104,0-3.715,0
			c-0.049,0-0.049-0.296,0-0.319c0.516-0.049,0.846-0.123,1.009-0.219c0.166-0.075,0.259-0.368,0.259-2.776v-0.395
			c-0.279-0.516-0.564-1.008-0.915-1.572l-0.729-1.178c-0.824-1.328-1.035-1.57-1.271-1.644c-0.213-0.103-0.47-0.127-0.846-0.152
			c-0.046,0-0.046-0.318,0-0.318c0.612,0,2.516,0,3.127,0c0.049,0,0.069,0.318,0,0.318c-0.281,0.025-0.423,0.05-0.541,0.123
			c-0.093,0.05-0.047,0.244,0.774,1.549l1.271,2.184l1.317-2.159c0.682-1.132,0.799-1.423,0.612-1.544
			c-0.119-0.077-0.285-0.127-0.637-0.152c-0.047,0-0.025-0.318,0-0.318c0.4,0,2.142,0,2.753,0c0.044,0,0.044,0.318,0,0.318
			C116.017,46.152,115.686,46.202,115.497,46.279z"/>
		<path d="M122.849,54.504c-1.222,0-2.068-0.638-2.092-0.782c-0.094-0.444-0.094-1.205-0.025-1.895c0-0.048,0.305-0.073,0.305,0
			c0.049,0.517,0.239,0.983,0.428,1.276c0.374,0.518,0.869,0.885,1.619,0.885c0.941,0,1.412-0.638,1.412-1.549
			c0-1.939-3.459-2.282-3.459-4.466c0-1.356,1.226-2.312,2.423-2.312c0.986,0,1.246,0.369,1.718,0.249
			c0.046-0.026,0.093,0.021,0.093,0.047c-0.025,0.465,0,1.129-0.025,1.842c0,0.048-0.305,0.048-0.328,0
			c-0.023-0.415-0.211-0.931-0.421-1.155c-0.283-0.291-0.753-0.467-1.155-0.467c-0.727,0-1.265,0.515-1.265,1.328
			c0,1.645,3.57,2.284,3.57,4.445C125.646,53.598,124.164,54.504,122.849,54.504z"/>
		<path d="M131.616,54.382c-0.025,0-0.047-0.296,0-0.319c0.396-0.022,0.655-0.123,0.655-0.317c0-0.223-0.163-0.665-0.915-2.533
			c0.024,0-2.562,0-2.585,0c-0.611,1.673-0.753,2.164-0.753,2.458c0,0.222,0.188,0.344,0.729,0.393c0.069,0.023,0.046,0.319,0,0.319
			c-0.379,0-2.118,0-2.728,0c-0.047,0-0.047-0.296,0-0.319c0.398-0.022,0.635-0.098,0.821-0.245c0.261-0.196,0.566-0.687,1.295-2.75
			l0.706-1.918c0.397-1.104,0.82-2.261,1.15-3.292c0.023-0.095,0.539-0.095,0.585,0c0.379,1.154,0.732,2.09,1.178,3.292l0.729,1.918
			c0.988,2.481,1.13,2.628,1.363,2.776c0.236,0.145,0.422,0.196,0.8,0.219c0.047,0.023,0.021,0.319,0,0.319
			C134.038,54.382,132.226,54.382,131.616,54.382z M130.063,47.601l-1.057,2.998h2.139L130.063,47.601z"/>
		<path d="M134.833,54.382c-0.024,0-0.024-0.296,0.024-0.319c0.517-0.049,0.847-0.123,0.986-0.219
			c0.166-0.075,0.282-0.368,0.282-2.776v-1.918c0-2.407-0.116-2.703-0.282-2.777c-0.14-0.093-0.47-0.17-0.986-0.245
			c-0.049,0-0.049-0.291-0.024-0.291c0.61,0,3.126,0,3.736,0c0.025,0,0.025,0.291-0.021,0.291c-0.518,0.075-0.849,0.152-0.988,0.245
			c-0.165,0.074-0.283,0.37-0.283,2.777v1.918c0,2.408,0.118,2.701,0.283,2.776c0.14,0.096,0.471,0.17,0.988,0.219
			c0.047,0.023,0.047,0.319,0.021,0.319C137.959,54.382,135.443,54.382,134.833,54.382z"/>
		<path d="M148.398,46.4c-0.121,0.094-0.26,0.342-0.237,2.749v1.918c0,1.105,0,2.283,0.069,3.314c0,0.073-0.396,0.101-0.468,0.025
			l-6.229-6.584l0.047,3.244c0.021,2.21,0.188,2.628,0.374,2.776c0.118,0.096,0.563,0.219,0.917,0.219c0.07,0,0.047,0.319,0,0.319
			c-0.659,0-2.538,0-3.147,0c-0.051,0-0.051-0.296,0-0.319c0.515-0.049,0.82-0.123,0.96-0.245c0.12-0.096,0.26-0.342,0.214-2.75
			l-0.023-1.918c0-1.104,0-2.281-0.07-3.313c0-0.073,0.445-0.102,0.47-0.027l6.252,6.631l-0.047-3.29
			c-0.022-2.407-0.21-2.677-0.353-2.777c-0.164-0.122-0.468-0.195-1.012-0.245c-0.068,0-0.045-0.291,0-0.291
			c0.612,0,2.563,0,3.176,0c0.045,0,0.068,0.291,0,0.291C148.771,46.202,148.537,46.279,148.398,46.4z"/>
		<path d="M157.753,47.749c0,0.025-0.306,0.025-0.306-0.025c0-0.34-0.071-0.686-0.24-0.882c-0.256-0.247-0.609-0.441-2.019-0.441
			c-0.282,0-0.447,0.021-0.563,0.021c-0.05,0.147-0.072,0.664-0.072,1.501v3.145c0,2.408,0.118,2.701,0.284,2.776
			c0.164,0.096,0.494,0.17,1.01,0.219c0.049,0.023,0.049,0.319,0,0.319c-0.612,0-3.104,0-3.716,0c-0.046,0-0.046-0.296,0-0.319
			c0.519-0.049,0.85-0.123,1.013-0.219c0.163-0.075,0.259-0.368,0.259-2.776v-3.145c0-0.837,0-1.354-0.046-1.501
			c-0.118,0-0.356-0.021-0.636-0.021c-1.338,0-1.717,0.146-2.021,0.441c-0.213,0.196-0.329,0.588-0.399,0.907
			c0,0.05-0.305,0-0.305-0.049c0.068-0.662,0.14-1.45,0.186-1.917c0-0.021,0.025-0.049,0.072-0.049
			c0.469,0.074,1.481,0.149,3.736,0.149c3.104,0,3.575-0.075,3.81-0.175c0.047,0,0.07,0.025,0.07,0.054
			C157.869,46.279,157.846,47.038,157.753,47.749z"/>
		<path d="M160.804,54.504c-1.221,0-2.067-0.638-2.091-0.782c-0.095-0.444-0.095-1.205-0.025-1.895c0-0.048,0.305-0.073,0.305,0
			c0.051,0.517,0.239,0.983,0.425,1.276c0.378,0.518,0.868,0.885,1.621,0.885c0.94,0,1.412-0.638,1.412-1.549
			c0-1.939-3.458-2.282-3.458-4.466c0-1.356,1.226-2.312,2.422-2.312c0.987,0,1.247,0.369,1.717,0.249
			c0.048-0.026,0.095,0.021,0.095,0.047c-0.022,0.465,0,1.129-0.022,1.842c0,0.048-0.309,0.048-0.329,0
			c-0.025-0.415-0.213-0.931-0.424-1.155c-0.283-0.291-0.753-0.467-1.152-0.467c-0.729,0-1.269,0.515-1.269,1.328
			c0,1.645,3.574,2.284,3.574,4.445C163.604,53.598,162.122,54.504,160.804,54.504z"/>
	</g>
</g>
</svg>
